0
SECTION
2
HEADER
0
ENDSEC
0
SECTION
2
TABLES
0
ENDSEC
0
SECTION
2
BLOCKS
0
ENDSEC
0
SECTION
2
ENTITIES
0
LINE
8
outline
10
0.0
20
0.0
30
0.0
11
0.0
21
28.0
31
0.0
0
LINE
8
outline
10
0.0
20
28.0
30
0.0
11
254.0
21
28.0
31
0.0
0
LINE
8
outline
10
254.0
20
28.0
30
0.0
11
254.0
21
0.0
31
0.0
0
LINE
8
outline
10
254.0
20
0.0
30
0.0
11
0.0
21
0.0
31
0.0
0
CIRCLE
8
drill_holes
10
8.89
20
32.0
30
0.0
40
1.5
0
CIRCLE
8
drill_holes
10
8.89
20
16.0
30
0.0
40
1.5
0
CIRCLE
8
drill_holes
10
25.88
20
32.0
30
0.0
40
1.5
0
CIRCLE
8
drill_holes
10
25.88
20
16.0
30
0.0
40
1.5
0
CIRCLE
8
drill_holes
10
42.87
20
32.0
30
0.0
40
1.5
0
CIRCLE
8
drill_holes
10
42.87
20
16.0
30
0.0
40
1.5
0
CIRCLE
8
drill_holes
10
59.86
20
32.0
30
0.0
40
1.5
0
CIRCLE
8
drill_holes
10
59.86
20
16.0
30
0.0
40
1.5
0
CIRCLE
8
drill_holes
10
80.18
20
32.0
30
0.0
40
1.5
0
CIRCLE
8
drill_holes
10
80.18
20
16.0
30
0.0
40
1.5
0
CIRCLE
8
drill_holes
10
100.50
20
32.0
30
0.0
40
1.5
0
CIRCLE
8
drill_holes
10
100.50
20
16.0
30
0.0
40
1.5
0
CIRCLE
8
drill_holes
10
120.82
20
32.0
30
0.0
40
1.5
0
CIRCLE
8
drill_holes
10
120.82
20
16.0
30
0.0
40
1.5
0
CIRCLE
8
drill_holes
10
151.97
20
35.0
30
0.0
40
1.5
0
CIRCLE
8
drill_holes
10
168.96
20
35.0
30
0.0
40
1.5
0
CIRCLE
8
drill_holes
10
185.95
20
35.0
30
0.0
40
1.5
0
CIRCLE
8
drill_holes
10
202.94
20
35.0
30
0.0
40
1.5
0
CIRCLE
8
drill_holes
10
219.93
20
35.0
30
0.0
40
1.5
0
CIRCLE
8
drill_holes
10
236.92
20
35.0
30
0.0
40
1.5
0
CIRCLE
8
drill_holes
10
151.97
20
20.0
30
0.0
40
1.5
0
CIRCLE
8
drill_holes
10
168.96
20
20.0
30
0.0
40
1.5
0
CIRCLE
8
drill_holes
10
185.95
20
20.0
30
0.0
40
1.5
0
CIRCLE
8
drill_holes
10
202.94
20
20.0
30
0.0
40
1.5
0
CIRCLE
8
drill_holes
10
219.93
20
20.0
30
0.0
40
1.5
0
CIRCLE
8
drill_holes
10
236.92
20
20.0
30
0.0
40
1.5
0
CIRCLE
8
drill_holes
10
254.00
20
28.0
30
0.0
40
1.5
0
CIRCLE
8
drill_holes
10
254.00
20
20.0
30
0.0
40
1.5
0
ENDSEC
0
SECTION
2
OBJECTS
0
ENDSEC
0
EOF
